<?xml version="1.0" standalone="no"?>
<!DOCTYPE svg PUBLIC "-//W3C//DTD SVG 20010904//EN"
 "http://www.w3.org/TR/2001/REC-SVG-20010904/DTD/svg10.dtd">
<svg version="1.0" xmlns="http://www.w3.org/2000/svg"
 width="260.000000pt" height="260.000000pt" viewBox="0 0 260.000000 260.000000"
 preserveAspectRatio="xMidYMid meet">
<metadata>
Created by potrace 1.11, written by Peter Selinger 2001-2013
</metadata>
<g transform="translate(0.000000,260.000000) scale(0.100000,-0.100000)"
fill="#000000" stroke="none">
<path d="M0 1300 l0 -1300 1300 0 1300 0 0 1300 0 1300 -1300 0 -1300 0 0
-1300z m904 673 c13 -46 398 -1273 411 -1311 l14 -42 -167 2 -166 3 -41 158
-40 157 -210 -2 -209 -3 -41 -157 -40 -158 -157 0 c-87 0 -158 3 -158 8 0 4
95 312 212 685 l213 677 187 0 c169 0 187 -2 192 -17z m1188 6 c206 -32 312
-116 338 -267 22 -134 -35 -280 -130 -334 -22 -13 -40 -25 -40 -28 0 -3 22
-13 50 -23 70 -25 141 -97 169 -172 32 -84 27 -214 -11 -297 -47 -101 -143
-174 -285 -215 -48 -14 -116 -17 -390 -21 l-333 -3 0 685 0 686 281 0 c154 0
312 -5 351 -11z"/>
<path d="M695 1724 c-4 -16 -35 -143 -69 -281 l-63 -253 144 0 c133 0 144 1
139 18 -3 9 -35 134 -72 277 -36 143 -68 262 -70 264 -1 2 -6 -10 -9 -25z"/>
<path d="M1770 1594 l0 -156 118 4 c101 3 124 7 162 29 60 32 82 76 77 148 -3
45 -9 59 -34 82 -39 34 -107 49 -228 49 l-95 0 0 -156z"/>
<path d="M1770 1035 l0 -177 143 3 c129 4 148 7 192 30 84 42 116 134 77 221
-16 36 -29 50 -68 69 -43 21 -66 24 -196 27 l-148 4 0 -177z"/>
</g>
</svg>
